<svg xmlns="http://www.w3.org/2000/svg" width="12.872" height="12.257" viewBox="0 0 12.872 12.257">
  <g id="noun_edit_1826624" transform="translate(0 0)">
    <g id="Group_170" data-name="Group 170" transform="translate(0 0)">
      <path id="Path_108" data-name="Path 108" d="M132.242,292.981l2.343-.959-2.194-1.646Z" transform="translate(-129.497 -283.222)" fill="#5375fc"/>
      <path id="Path_109" data-name="Path 109" d="M288.795,52.952a1.282,1.282,0,0,0-.241-1.808L288,50.726a1.287,1.287,0,0,0-1.787.239l-.368.476,2.594,1.969Z" transform="translate(-278.52 -50.469)" fill="#5375fc"/>
      <path id="Path_110" data-name="Path 110" d="M148.642,100.875l-2.593-1.969-3.921,5.073,2.6,1.95Z" transform="translate(-139.088 -97.462)" fill="#5375fc"/>
      <path id="Path_111" data-name="Path 111" d="M52.743,441.532H40.468a.3.3,0,1,0,0,.6H52.743a.3.3,0,1,0,0-.6Z" transform="translate(-40.17 -429.871)" fill="#5375fc"/>
    </g>
  </g>
</svg>
