<svg xmlns="http://www.w3.org/2000/svg" width="19" height="19" viewBox="0 0 19 19">
  <g id="price" transform="translate(0 0)">
    <path id="Path_20" data-name="Path 20" d="M18.837,2.983,16.017.163A.557.557,0,0,0,15.623,0H11.281a.557.557,0,0,0-.394.163L.489,10.583a1.672,1.672,0,0,0,0,2.362l5.567,5.567a1.672,1.672,0,0,0,2.362,0L18.838,8.075A.557.557,0,0,0,19,7.682v-4.3a.557.557,0,0,0-.163-.394Zm-7.356,7.685a.557.557,0,1,1-.787-.787.557.557,0,0,0,0-.787l-.787-.787a.557.557,0,0,0-.787,0l-.22.22a.556.556,0,0,0-.1.643l.857,1.714a1.668,1.668,0,0,1-.313,1.928l-.22.22a1.669,1.669,0,0,1-2.362,0l-.5.5a.557.557,0,1,1-.787-.787l.5-.5a1.669,1.669,0,0,1,0-2.362.557.557,0,0,1,.787.787.556.556,0,0,0,0,.787l.787.787a.556.556,0,0,0,.787,0l.22-.22a.556.556,0,0,0,.1-.643L7.8,9.667a1.668,1.668,0,0,1,.313-1.928l.22-.22a1.669,1.669,0,0,1,2.355-.006l.465-.489a.557.557,0,1,1,.807.768l-.484.508a1.668,1.668,0,0,1,.006,2.368ZM14.51,6.16a1.67,1.67,0,1,1,1.67-1.67A1.672,1.672,0,0,1,14.51,6.16Z" fill="#7a8fa6"/>
    <circle id="Ellipse_4" data-name="Ellipse 4" cx="0.5" cy="0.5" r="0.5" transform="translate(13.895 3.97)" fill="#7a8fa6"/>
  </g>
</svg>
