<svg xmlns="http://www.w3.org/2000/svg" width="16" height="18" viewBox="0 0 16 18">
  <g id="noun_Delete_2025327" transform="translate(-5.7 -2.5)">
    <g id="Group_122" data-name="Group 122" transform="translate(5.7 2.5)">
      <path id="Path_90" data-name="Path 90" d="M13.041,42.362a1.137,1.137,0,0,0,1.131,1.065h9.3A1.151,1.151,0,0,0,24.6,42.362L25.645,31H12ZM21.1,34.551a.575.575,0,1,1,1.149,0v5.326a.575.575,0,1,1-1.149,0Zm-2.855,0a.575.575,0,1,1,1.149,0v5.326a.575.575,0,1,1-1.149,0Zm-2.837,0a.575.575,0,1,1,1.149,0v5.326a.575.575,0,1,1-1.149,0Z" transform="translate(-10.823 -25.427)" fill="#fff"/>
      <path id="Path_91" data-name="Path 91" d="M20.562,4.275H15.993v-.6A1.153,1.153,0,0,0,14.856,2.5H12.562a1.153,1.153,0,0,0-1.138,1.177v.6H6.838a1.178,1.178,0,0,0,0,2.355H20.562a1.178,1.178,0,0,0,0-2.355Z" transform="translate(-5.7 -2.5)" fill="#fff"/>
    </g>
  </g>
</svg>
