<svg xmlns="http://www.w3.org/2000/svg" width="26.54" height="20" viewBox="0 0 26.54 20">
  <g id="addcamera" transform="translate(-179 -11)">
    <g id="photo-camera" transform="translate(179 -34.104)">
      <g id="Group_42" data-name="Group 42" transform="translate(0 47.104)">
        <g id="Group_41" data-name="Group 41" transform="translate(0 0)">
          <path id="Path_14" data-name="Path 14" d="M19.7,50.234H17.367l-1.289-1.957A2.675,2.675,0,0,0,13.865,47.1H8.513A2.675,2.675,0,0,0,6.3,48.278L5.011,50.234H2.676A2.675,2.675,0,0,0,0,52.925v9.489A2.675,2.675,0,0,0,2.676,65.1H19.7a2.675,2.675,0,0,0,2.676-2.69V52.925A2.675,2.675,0,0,0,19.7,50.234ZM11.189,62.9a6.053,6.053,0,1,1,6.032-6.041A6.048,6.048,0,0,1,11.189,62.9Zm8.173-8.878h-1.07a.8.8,0,0,1,0-1.59h.973a.791.791,0,0,1,.827.758A.773.773,0,0,1,19.362,54.025Z" transform="translate(0 -47.104)" fill="#5375fc"/>
        </g>
      </g>
      <g id="Group_44" data-name="Group 44" transform="translate(7.729 53.392)">
        <g id="Group_43" data-name="Group 43" transform="translate(0 0)">
          <path id="Path_15" data-name="Path 15" d="M168.324,180.736a3.447,3.447,0,1,0,3.46,3.435A3.467,3.467,0,0,0,168.324,180.736Z" transform="translate(-164.864 -180.736)" fill="#5375fc"/>
        </g>
      </g>
    </g>
    <g id="noun_add_860385" transform="translate(184 14)">
      <circle id="Ellipse_16" data-name="Ellipse 16" cx="5.27" cy="5.27" r="5.27" transform="translate(11 -3)" fill="#fafafa"/>
      <g id="Group_201" data-name="Group 201" transform="translate(13 -1.222)">
        <g id="Group_200" data-name="Group 200">
          <path id="Path_119" data-name="Path 119" d="M3.041,3.041H2.026a.338.338,0,0,0,0,.676H3.041V4.732a.338.338,0,0,0,.676,0V3.717H4.732a.338.338,0,0,0,0-.676H3.717V2.026a.338.338,0,0,0-.676,0Zm.338,3.717A3.379,3.379,0,1,1,6.758,3.379,3.379,3.379,0,0,1,3.379,6.758Z" fill="#5375fc" fill-rule="evenodd"/>
        </g>
      </g>
    </g>
  </g>
</svg>
