<svg xmlns="http://www.w3.org/2000/svg" xmlns:xlink="http://www.w3.org/1999/xlink" width="174" height="219" viewBox="0 0 174 219">
  <defs>
    <filter id="Rectangle_15" x="0" y="0" width="174" height="219" filterUnits="userSpaceOnUse">
      <feOffset dy="3" input="SourceAlpha"/>
      <feGaussianBlur stdDeviation="3" result="blur"/>
      <feFlood flood-opacity="0.161"/>
      <feComposite operator="in" in2="blur"/>
      <feComposite in="SourceGraphic"/>
    </filter>
  </defs>
  <g id="Group_105" data-name="Group 105" transform="translate(-101 -169)">
    <g id="noun_Camera_318577" transform="translate(171 171.621)">
      <g id="Group_99" data-name="Group 99" transform="translate(-10 83.379)">
        <path id="Path_60" data-name="Path 60" d="M40.239,38.02a7.93,7.93,0,1,0,7.931,7.931A7.938,7.938,0,0,0,40.239,38.02Zm0,13.842a5.911,5.911,0,1,1,5.912-5.911A5.917,5.917,0,0,1,40.239,51.862Z" transform="translate(-13.57 -25.358)" fill="#5375fc"/>
        <path id="Path_61" data-name="Path 61" d="M38.232,31.4A12.21,12.21,0,1,0,50.776,43.6,12.392,12.392,0,0,0,38.232,31.4Zm0,22.448A10.246,10.246,0,1,1,48.757,43.6,10.4,10.4,0,0,1,38.232,53.846Z" transform="translate(-11.546 -23.023)" fill="#5375fc"/>
        <path id="Path_62" data-name="Path 62" d="M71.912,33.145a1.441,1.441,0,1,0,1.44,1.441A1.442,1.442,0,0,0,71.912,33.145Z" transform="translate(-25.394 -23.715)" fill="#5375fc"/>
        <path id="Path_63" data-name="Path 63" d="M58.306,42.133V29a4.784,4.784,0,0,0-4.789-4.768H45.211a.864.864,0,0,1-.276-.088l-4.086-3.73-.062-.051a5.586,5.586,0,0,0-3.041-.981H25.561a5.594,5.594,0,0,0-3.042.981l-4.147,3.781a.883.883,0,0,1-.273.09H9.79A4.784,4.784,0,0,0,5,29V52.069A4.786,4.786,0,0,0,9.79,56.84H49.1a.153.153,0,0,0-.008-.014,9.673,9.673,0,1,0,9.217-14.693Zm-10.689,9.6a9.569,9.569,0,0,0,.533,3.133l0-.01H9.79A2.794,2.794,0,0,1,7,52.068V29A2.791,2.791,0,0,1,9.79,26.216H18.1a2.707,2.707,0,0,0,1.513-.518l4.157-3.791a3.755,3.755,0,0,1,1.792-.542H37.746a3.742,3.742,0,0,1,1.79.542l4.1,3.74.061.051a2.711,2.711,0,0,0,1.513.518h8.31A2.791,2.791,0,0,1,56.311,29V42.132A9.669,9.669,0,0,0,47.616,51.73ZM48.58,55.9l-.025-.051C48.563,55.87,48.572,55.887,48.58,55.9Zm13.147-3.5H57.981v3.729a.673.673,0,0,1-1.345,0V52.4H52.889a.67.67,0,0,1,0-1.34h3.746V47.33a.673.673,0,0,1,1.345,0V51.06h3.746a.67.67,0,0,1,0,1.34Z" transform="translate(-5 -19.379)" fill="#5375fc"/>
      </g>
    </g>
    <g id="Group_48" data-name="Group 48" transform="translate(82 71)">
      <g id="Group_40" data-name="Group 40" transform="translate(5 -12)">
        <g transform="matrix(1, 0, 0, 1, 14, 110)" filter="url(#Rectangle_15)">
          <g id="Rectangle_15-2" data-name="Rectangle 15" transform="translate(9 6)" fill="none" stroke="#d0deed" stroke-width="0.5" opacity="0.998">
            <rect width="156" height="201" stroke="none"/>
            <rect x="0.25" y="0.25" width="155.5" height="200.5" fill="none"/>
          </g>
        </g>
        <path id="Path_23" data-name="Path 23" d="M47.537,116.193H23.152v23.828" fill="none" stroke="#5375fc" stroke-width="2"/>
        <path id="Path_24" data-name="Path 24" d="M23.152,116.193H47.537v23.828" transform="translate(131)" fill="none" stroke="#5375fc" stroke-width="2"/>
        <path id="Path_25" data-name="Path 25" d="M23.152,140.021H47.537V116.193" transform="translate(131 177)" fill="none" stroke="#5375fc" stroke-width="2"/>
        <path id="Path_26" data-name="Path 26" d="M47.537,140.021H23.152V116.193" transform="translate(0 177)" fill="none" stroke="#5375fc" stroke-width="2"/>
      </g>
    </g>
  </g>
</svg>
