<svg xmlns="http://www.w3.org/2000/svg" width="30" height="30" viewBox="0 0 30 30">
  <g id="Group_206" data-name="Group 206" transform="translate(-24 -169)">
    <rect id="Rectangle_51" data-name="Rectangle 51" width="30" height="30" rx="5" transform="translate(24 169)" fill="#fff" opacity="0.3"/>
    <path id="Path_39" data-name="Path 39" d="M8.879,1.379a7.5,7.5,0,1,0,7.5,7.5,7.5,7.5,0,0,0-7.5-7.5Zm.027,12.366c-.838.4-2.133.057-1.907-.787L8.221,8.4c.427-1.6-.748-1.072-1.274-.841A3.255,3.255,0,0,1,8.237,6.432c.838-.4,2.133-.057,1.907.787l-1.222,4.56c-.427,1.6.748,1.072,1.274.841A3.254,3.254,0,0,1,8.906,13.746Zm1.881-8.926a.776.776,0,1,1-.549-.95.776.776,0,0,1,.549.95Z" transform="translate(30.621 174.621)" fill="#fff"/>
  </g>
</svg>
