<svg id="Group_115" data-name="Group 115" xmlns="http://www.w3.org/2000/svg" width="20" height="20" viewBox="0 0 20 20">
  <path id="Path_88" data-name="Path 88" d="M19.478,5.335a10,10,0,1,0,0,14.142A10,10,0,0,0,19.478,5.335ZM15.523,16.627l-3.116-3.116L9.291,16.627a.782.782,0,1,1-1.106-1.105L11.3,12.406,8.186,9.29A.781.781,0,0,1,9.291,8.185L12.407,11.3l3.116-3.116A.781.781,0,0,1,16.628,9.29l-3.116,3.116,3.116,3.117a.781.781,0,1,1-1.105,1.105Z" transform="translate(-2.407 -2.406)" fill="#5375fc"/>
</svg>
