<svg xmlns="http://www.w3.org/2000/svg" width="30" height="30" viewBox="0 0 30 30">
  <g id="Group_204" data-name="Group 204" transform="translate(-24 -79)">
    <rect id="Rectangle_49" data-name="Rectangle 49" width="30" height="30" rx="5" transform="translate(24 79)" fill="#fff" opacity="0.301"/>
    <g id="noun_premium_2339853" transform="translate(65 102)">
      <path id="Path_75" data-name="Path 75" d="M18,16.846A1.147,1.147,0,0,1,16.867,18H2.133a1.154,1.154,0,0,1,0-2.308H16.867A1.147,1.147,0,0,1,18,16.846Zm-.4-10.9a.533.533,0,0,0-.623.231l-2.833,4.154a.782.782,0,0,1-.51.173.432.432,0,0,1-.453-.346L10.01,3.346A.544.544,0,0,0,9.5,3a.574.574,0,0,0-.51.346L6.27,10.154a.5.5,0,0,1-.453.346.49.49,0,0,1-.51-.231L2.02,6.115A.465.465,0,0,0,1.4,5.942a.552.552,0,0,0-.4.519v5.192a2.832,2.832,0,0,0,2.833,2.885H15.167A2.832,2.832,0,0,0,18,11.654V6.462A.552.552,0,0,0,17.6,5.942Z" transform="translate(-35 -18)" fill="#fff"/>
    </g>
  </g>
</svg>
