<svg xmlns="http://www.w3.org/2000/svg" width="20" height="20" viewBox="0 0 20 20">
  <path id="Path_39" data-name="Path 39" d="M11.379,1.379a10,10,0,1,0,10,10,10,10,0,0,0-10-10Zm.035,16.489c-1.117.54-2.844.075-2.543-1.049l1.629-6.08c.57-2.127-1-1.429-1.7-1.121a4.34,4.34,0,0,1,1.721-1.5c1.117-.54,2.844-.075,2.543,1.049l-1.629,6.08c-.57,2.127,1,1.429,1.7,1.121A4.339,4.339,0,0,1,11.415,17.868Zm2.509-11.9A1.035,1.035,0,1,1,13.192,4.7a1.035,1.035,0,0,1,.732,1.267Z" transform="translate(-1.379 -1.379)" fill="#5375fc"/>
</svg>
