<svg id="surface1" xmlns="http://www.w3.org/2000/svg" width="19" height="19" viewBox="0 0 19 19">
  <path id="Path_16" data-name="Path 16" d="M2.949,401.664H2.11A2.112,2.112,0,0,0,0,403.774v1.536a.574.574,0,0,0,.574.574H3.048a1.71,1.71,0,0,1-.1-.574Zm0,0" transform="translate(0 -386.884)" fill="#5375fc"/>
  <path id="Path_17" data-name="Path 17" d="M110.059,321.332h-.839a2.112,2.112,0,0,0-2.11,2.11v4.609a.574.574,0,0,0,.574.574h2.474a1.714,1.714,0,0,1-.1-.574Zm0,0" transform="translate(-103.157 -309.625)" fill="#5375fc"/>
  <path id="Path_18" data-name="Path 18" d="M277,5.591l-4.1-5.366a.584.584,0,0,0-.922,0l-4.1,5.366a.543.543,0,0,0-.051.582.576.576,0,0,0,.512.306h1.475V18.443A.565.565,0,0,0,270.4,19h4.1a.565.565,0,0,0,.574-.557V6.479h1.475a.576.576,0,0,0,.512-.306A.543.543,0,0,0,277,5.591Zm0,0" transform="translate(-258.118)" fill="#5375fc"/>
  <path id="Path_19" data-name="Path 19" d="M217.168,241h-.839a2.112,2.112,0,0,0-2.11,2.11v7.681a.574.574,0,0,0,.574.574h2.474a1.714,1.714,0,0,1-.1-.574Zm0,0" transform="translate(-206.314 -232.365)" fill="#5375fc"/>
</svg>
