<svg xmlns="http://www.w3.org/2000/svg" width="30" height="30" viewBox="0 0 30 30">
  <g id="Group_207" data-name="Group 207" transform="translate(-24 -213)">
    <rect id="Rectangle_52" data-name="Rectangle 52" width="30" height="30" rx="5" transform="translate(24 213)" fill="#fff" opacity="0.3"/>
    <g id="noun_Mail_1557083" transform="translate(21 199)">
      <g id="Group_111" data-name="Group 111" transform="translate(10 24)">
        <path id="Path_87" data-name="Path 87" d="M11.275,976.362a1.278,1.278,0,0,0-.471.093l7.212,6.273a.663.663,0,0,0,.956,0l7.225-6.273a1.278,1.278,0,0,0-.471-.093Zm-1.262,1.091a1.307,1.307,0,0,0-.013.179v8.462a1.269,1.269,0,0,0,1.275,1.269h14.45A1.269,1.269,0,0,0,27,986.093v-8.462a1.308,1.308,0,0,0-.013-.179l-7.179,6.234a2.015,2.015,0,0,1-2.63,0Z" transform="translate(-10 -976.362)" fill="#fff"/>
      </g>
    </g>
  </g>
</svg>
