<svg xmlns="http://www.w3.org/2000/svg" width="30" height="30" viewBox="0 0 30 30">
  <g id="Group_208" data-name="Group 208" transform="translate(-24 -257)">
    <rect id="Rectangle_53" data-name="Rectangle 53" width="30" height="30" rx="5" transform="translate(24 257)" fill="#fff" opacity="0.3"/>
    <g id="noun_Star_2235546" transform="translate(1 222.343)">
      <g id="Group_109" data-name="Group 109" transform="translate(29.327 41.657)">
        <g id="Group_108" data-name="Group 108" transform="translate(0)">
          <path id="Path_74" data-name="Path 74" d="M39.934,47.781a.15.15,0,0,1-.142-.1l-1.964-6.022-1.963,6.022a.15.15,0,0,1-.142.1h0l-6.394-.012,5.18,3.707a.147.147,0,0,1,.055.166l-1.987,6.015,5.164-3.73a.151.151,0,0,1,.176,0l5.166,3.731-1.987-6.015a.147.147,0,0,1,.055-.166l5.179-3.707-6.393.012Z" transform="translate(-29.327 -41.657)" fill="#fff"/>
        </g>
      </g>
    </g>
  </g>
</svg>
