<svg xmlns="http://www.w3.org/2000/svg" width="16" height="16" viewBox="0 0 16 16">
  <g id="noun_Search_3495269" transform="translate(-2 -2)">
    <g id="Group_104" data-name="Group 104" transform="translate(2 2)">
      <path id="Path_65" data-name="Path 65" d="M17.8,16.867,14.213,13.28A6.894,6.894,0,1,0,2,8.907a6.925,6.925,0,0,0,6.907,6.907,6.853,6.853,0,0,0,4.373-1.6L16.867,17.8a.67.67,0,0,0,.467.2.667.667,0,0,0,.467-1.133ZM3.333,8.907A5.573,5.573,0,1,1,8.907,14.48,5.588,5.588,0,0,1,3.333,8.907Z" transform="translate(-2 -2)" fill="#6f6cfc"/>
    </g>
  </g>
</svg>
