<svg xmlns="http://www.w3.org/2000/svg" width="345" height="36" viewBox="0 0 345 36">
  <g id="Path_93" data-name="Path 93" fill="#fff">
    <path d="M 327 35.5 L 18 35.5 C 13.32559108734131 35.5 8.930954933166504 33.67968368530273 5.625636577606201 30.37436294555664 C 2.320318222045898 27.06904602050781 0.5 22.67440986633301 0.5 18 C 0.5 13.32559108734131 2.320318222045898 8.930954933166504 5.625636577606201 5.625636577606201 C 8.930954933166504 2.320318222045898 13.32559108734131 0.5 18 0.5 L 327 0.5 C 331.6744079589844 0.5 336.0690307617188 2.320318222045898 339.3743591308594 5.625636577606201 C 342.6796875 8.930954933166504 344.5 13.32559108734131 344.5 18 C 344.5 22.67440986633301 342.6796875 27.06904602050781 339.3743591308594 30.37436294555664 C 336.0690307617188 33.67968368530273 331.6744079589844 35.5 327 35.5 Z" stroke="none"/>
    <path d="M 18 1 C 13.45913696289062 1 9.190032958984375 2.768318176269531 5.97918701171875 5.979181289672852 C 2.768310546875 9.190046310424805 1 13.45913696289062 1 18 C 1 22.54086303710938 2.768310546875 26.80995559692383 5.97918701171875 30.02081871032715 C 9.190032958984375 33.23168182373047 13.45913696289062 35 18 35 L 327 35 C 331.5408630371094 35 335.8099670410156 33.23168182373047 339.0208129882812 30.02081871032715 C 342.231689453125 26.80995559692383 344 22.54086303710938 344 18 C 344 13.45913696289062 342.231689453125 9.190046310424805 339.0208129882812 5.979181289672852 C 335.8099670410156 2.768318176269531 331.5408630371094 1 327 1 L 18 1 M 18 0 L 327 0 C 336.9411315917969 0 345 8.058862686157227 345 18 C 345 27.94113540649414 336.9411315917969 36 327 36 L 18 36 C 8.058868408203125 36 0 27.94113540649414 0 18 C 0 8.058862686157227 8.058868408203125 0 18 0 Z" stroke="none" fill="#7a8fa6"/>
  </g>
</svg>
