<svg xmlns="http://www.w3.org/2000/svg" xmlns:xlink="http://www.w3.org/1999/xlink" width="174" height="218.979" viewBox="0 0 174 218.979">
  <defs>
    <filter id="Rectangle_15" x="0" y="0" width="174" height="218.979" filterUnits="userSpaceOnUse">
      <feOffset dy="3" input="SourceAlpha"/>
      <feGaussianBlur stdDeviation="3" result="blur"/>
      <feFlood flood-opacity="0.161"/>
      <feComposite operator="in" in2="blur"/>
      <feComposite in="SourceGraphic"/>
    </filter>
  </defs>
  <g id="Group_214" data-name="Group 214" transform="translate(-11 -74)">
    <g id="Group_48" data-name="Group 48" transform="translate(0 -30)">
      <g id="Group_40" data-name="Group 40" transform="translate(20 110)">
        <g transform="matrix(1, 0, 0, 1, -9, -6)" filter="url(#Rectangle_15)">
          <g id="Rectangle_15-2" data-name="Rectangle 15" transform="translate(9 6)" fill="none" stroke="#d0deed" stroke-width="0.5" opacity="0.998">
            <rect width="156" height="200.979" stroke="none"/>
            <rect x="0.25" y="0.25" width="155.5" height="200.479" fill="none"/>
          </g>
        </g>
        <path id="Path_23" data-name="Path 23" d="M47.537,116.193H23.152v23.828" transform="translate(-23 -116)" fill="none" stroke="#5375fc" stroke-width="2"/>
        <path id="Path_24" data-name="Path 24" d="M23.152,116.193H47.537v23.828" transform="translate(108 -116)" fill="none" stroke="#5375fc" stroke-width="2"/>
        <path id="Path_25" data-name="Path 25" d="M23.152,140.021H47.537V116.193" transform="translate(108 60.979)" fill="none" stroke="#5375fc" stroke-width="2"/>
        <path id="Path_26" data-name="Path 26" d="M47.537,140.021H23.152V116.193" transform="translate(-23 60.979)" fill="none" stroke="#5375fc" stroke-width="2"/>
      </g>
      <g id="Group_45" data-name="Group 45" transform="translate(65 166.992)">
        <g id="photo-camera" transform="translate(19 0)">
          <g id="Group_42" data-name="Group 42">
            <g id="Group_41" data-name="Group 41" transform="translate(0 0)">
              <path id="Path_14" data-name="Path 14" d="M24.652,50.93H21.73l-1.613-2.391a3.37,3.37,0,0,0-2.77-1.435h-6.7a3.37,3.37,0,0,0-2.77,1.435L6.27,50.93H3.348A3.309,3.309,0,0,0,0,54.218v11.6A3.309,3.309,0,0,0,3.348,69.1h21.3A3.309,3.309,0,0,0,28,65.816v-11.6A3.309,3.309,0,0,0,24.652,50.93ZM14,66.414a7.4,7.4,0,1,1,7.548-7.383A7.474,7.474,0,0,1,14,66.414ZM24.226,55.563H22.887a.972.972,0,0,1,0-1.943H24.1a.981.981,0,0,1,1.035.927A.953.953,0,0,1,24.226,55.563Z" transform="translate(0 -47.104)" fill="#5375fc"/>
            </g>
          </g>
          <g id="Group_44" data-name="Group 44" transform="translate(9.771 7.685)">
            <g id="Group_43" data-name="Group 43" transform="translate(0 0)">
              <path id="Path_15" data-name="Path 15" d="M169.093,180.736a4.213,4.213,0,1,0,4.229,4.2A4.237,4.237,0,0,0,169.093,180.736Z" transform="translate(-164.864 -180.736)" fill="#5375fc"/>
            </g>
          </g>
        </g>
        <text id="Scan_Front" data-name="Scan Front" transform="translate(33 57)" fill="#5375fc" font-size="13" font-family="Muli-SemiBold, Muli" font-weight="600" letter-spacing="0.004em" opacity="0"><tspan x="-33.131" y="0">Scan Front</tspan></text>
      </g>
    </g>
  </g>
</svg>
