<svg xmlns="http://www.w3.org/2000/svg" width="30" height="30" viewBox="0 0 30 30">
  <g id="Group_209" data-name="Group 209" transform="translate(-24 -301)">
    <rect id="Rectangle_54" data-name="Rectangle 54" width="30" height="30" rx="5" transform="translate(24 301)" fill="#fff" opacity="0.3"/>
    <g id="share-symbol" transform="translate(31 289.727)">
      <g id="Group_47" data-name="Group 47" transform="translate(0 18.273)">
        <path id="Path_21" data-name="Path 21" d="M87.339,22.408l-3.94-3.94a.632.632,0,0,0-.462-.195.715.715,0,0,0-.256.051.614.614,0,0,0-.4.605V20.9H80.639a16.767,16.767,0,0,0-2.016.113,10.877,10.877,0,0,0-1.637.313,6.661,6.661,0,0,0-1.278.5,5.465,5.465,0,0,0-.97.631,4,4,0,0,0-.7.759,4.712,4.712,0,0,0-.482.836,4.833,4.833,0,0,0-.287.9,7.081,7.081,0,0,0-.144.923q-.036.431-.036.934a4.912,4.912,0,0,0,.18,1.252,8.168,8.168,0,0,0,.4,1.17q.215.492.508,1.021t.405.7q.113.174.216.318a.321.321,0,0,0,.267.133.557.557,0,0,0,.123-.02.316.316,0,0,0,.205-.349q-.462-3.448.759-4.854,1.18-1.344,4.495-1.344h1.642v1.97a.614.614,0,0,0,.4.606.713.713,0,0,0,.256.051.611.611,0,0,0,.462-.195l3.94-3.941a.644.644,0,0,0,0-.923Z" transform="translate(-71.534 -18.273)" fill="#fff"/>
        <path id="Path_22" data-name="Path 22" d="M14.233,63.5a.3.3,0,0,0-.359.083,2.162,2.162,0,0,1-.554.386.329.329,0,0,0-.185.3V66.5a1.62,1.62,0,0,1-.482,1.179,1.568,1.568,0,0,1-1.16.49H2.955a1.568,1.568,0,0,1-1.16-.49A1.62,1.62,0,0,1,1.313,66.5V57.823A1.62,1.62,0,0,1,1.8,56.644a1.568,1.568,0,0,1,1.16-.49H4.1a.468.468,0,0,0,.164-.042,6.8,6.8,0,0,1,1.365-.626.3.3,0,0,0,.267-.334.323.323,0,0,0-.1-.235.313.313,0,0,0-.231-.1H2.955A2.824,2.824,0,0,0,.867,55.7,2.918,2.918,0,0,0,0,57.823V66.5a2.918,2.918,0,0,0,.867,2.123,2.824,2.824,0,0,0,2.088.881h8.538a2.824,2.824,0,0,0,2.088-.881,2.917,2.917,0,0,0,.867-2.123V63.8A.315.315,0,0,0,14.233,63.5Z" transform="translate(0 -53.505)" fill="#fff"/>
      </g>
    </g>
  </g>
</svg>
