<svg xmlns="http://www.w3.org/2000/svg" width="13.309" height="16.636" viewBox="0 0 13.309 16.636">
  <g id="noun_Delete_3144394" transform="translate(-14 -5)">
    <g id="Group_197" data-name="Group 197" transform="translate(14 5)">
      <path id="Path_117" data-name="Path 117" d="M27.309,7.08v.832a.416.416,0,0,1-.416.416H14.416A.416.416,0,0,1,14,7.911V7.08a.416.416,0,0,1,.416-.416h3.743V5.832A.832.832,0,0,1,18.991,5h3.327a.832.832,0,0,1,.832.832v.832h3.743A.416.416,0,0,1,27.309,7.08ZM15.555,20.089a1.664,1.664,0,0,0,1.664,1.547h6.887a1.664,1.664,0,0,0,1.664-1.547l.707-10.1H14.832Z" transform="translate(-14 -5)" fill="#ff0031"/>
    </g>
  </g>
</svg>
