<svg xmlns="http://www.w3.org/2000/svg" width="30" height="30" viewBox="0 0 30 30">
  <g id="Group_205" data-name="Group 205" transform="translate(-24 -125)">
    <rect id="Rectangle_50" data-name="Rectangle 50" width="30" height="30" rx="5" transform="translate(24 125)" fill="#fff" opacity="0.3"/>
    <g id="noun_premium_2390072" transform="translate(29 128.515)">
      <g id="Group_110" data-name="Group 110" transform="translate(1.56 3.528)">
        <path id="Path_76" data-name="Path 76" d="M1.64,19.512l7.368,8.508L6.553,19.512Z" transform="translate(-1.612 -13.966)" fill="#fff"/>
        <path id="Path_77" data-name="Path 77" d="M17.21,19.512l2.728,9.454,2.728-9.454Z" transform="translate(-11.442 -13.966)" fill="#fff"/>
        <path id="Path_78" data-name="Path 78" d="M3.839,9.3,1.56,12.356H6.122Z" transform="translate(-1.56 -7.277)" fill="#fff"/>
        <path id="Path_79" data-name="Path 79" d="M40,12.356,37.719,9.3,35.44,12.356Z" transform="translate(-22.999 -7.277)" fill="#fff"/>
        <path id="Path_80" data-name="Path 80" d="M11.476,11.366l2.476-3.314H9Z" transform="translate(-6.264 -6.465)" fill="#fff"/>
        <path id="Path_81" data-name="Path 81" d="M31.825,8.052H26.87l2.479,3.317Z" transform="translate(-17.561 -6.465)" fill="#fff"/>
        <path id="Path_82" data-name="Path 82" d="M22.778,11.545,20.169,8.052,17.56,11.545Z" transform="translate(-11.669 -6.465)" fill="#fff"/>
        <path id="Path_83" data-name="Path 83" d="M27.33,28.023,34.7,19.512H29.788Z" transform="translate(-17.733 -13.966)" fill="#fff"/>
        <path id="Path_84" data-name="Path 84" d="M5.6,5.356l.322-.723.592-.191-.592-.194L5.6,3.528l-.322.72-.592.194.592.191Z" transform="translate(-3.592 -3.528)" fill="#fff"/>
        <path id="Path_85" data-name="Path 85" d="M3.856,9.755l.2-.452.372-.119L4.06,9.06l-.2-.456L3.65,9.06l-.372.123L3.65,9.3Z" transform="translate(-2.675 -6.824)" fill="#fff"/>
        <path id="Path_86" data-name="Path 86" d="M11.629,5.761,11.79,5.4l.291-.095-.291-.095-.161-.361-.161.361-.295.095.295.095Z" transform="translate(-7.68 -4.388)" fill="#fff"/>
      </g>
    </g>
  </g>
</svg>
