<svg xmlns="http://www.w3.org/2000/svg" xmlns:xlink="http://www.w3.org/1999/xlink" width="236" height="273" viewBox="0 0 236 273"><defs><linearGradient id="a" x1="0.5" x2="0.485" y2="0.843" gradientUnits="objectBoundingBox"><stop offset="0" stop-color="#d9dce2"/><stop offset="1" stop-color="#bec4d1" stop-opacity="0"/></linearGradient><linearGradient id="b" x1="0.5" x2="0.5" y2="1" gradientUnits="objectBoundingBox"><stop offset="0" stop-color="#bec4d1"/><stop offset="1" stop-color="#fff" stop-opacity="0"/></linearGradient></defs><g transform="translate(-804.275 -6441.209)"><ellipse cx="118" cy="92.5" rx="118" ry="92.5" transform="translate(804.275 6508.209)" fill="url(#a)"/><path d="M12,0H151a12,12,0,0,1,12,12V256a12,12,0,0,1-12,12H12A12,12,0,0,1,0,256V12A12,12,0,0,1,12,0Z" transform="translate(840.275 6446.209)" fill="url(#b)"/><rect width="152" height="250" rx="12" transform="translate(846.275 6452.209)" fill="#fff"/><path d="M0,0H82a0,0,0,0,1,0,0V6a8,8,0,0,1-8,8H8A8,8,0,0,1,0,6V0A0,0,0,0,1,0,0Z" transform="translate(881.275 6448.209)" fill="#bec4d1"/><g transform="translate(902.448 6455.648)"><rect width="32" height="2" rx="1" transform="translate(-0.173 -0.439)" fill="#4c5260"/><rect width="4" height="2" rx="1" transform="translate(35.827 -0.439)" fill="#4c5260"/></g><rect width="126" height="132" transform="translate(859.275 6494.209)" fill="#fff"/><path d="M877,6515.414v-12.229h13.065" transform="translate(-18.59 -15.9)" fill="none" stroke="#bec4d1" stroke-width="1"/><path d="M877,6503.187v12.23h13.065" transform="translate(-18.59 104.099)" fill="none" stroke="#bec4d1" stroke-width="1" opacity="0.127"/><path d="M890.065,6515.414v-12.229H877" transform="translate(94.703 -15.9)" fill="none" stroke="#bec4d1" stroke-width="1"/><path d="M890.065,6503.187v12.23H877" transform="translate(94.703 104.099)" fill="none" stroke="#bec4d1" stroke-width="1" opacity="0.127"/><rect width="78.261" height="5.963" rx="2.981" transform="translate(884.537 6535.653) rotate(-21)" fill="rgba(190,196,209,0.2)" opacity="0.626"/><rect width="78.261" height="2.236" rx="1.118" transform="translate(877.084 6552.797) rotate(-21)" fill="rgba(190,196,209,0.2)" opacity="0.469"/><g transform="translate(905.367 6542.194)"><g transform="translate(0 0)"><path d="M57.787,44.4a.587.587,0,0,0,.426-.992q-.165-.174-.347-.332a.587.587,0,1,0-.77.887c.092.08.181.165.265.253A.584.584,0,0,0,57.787,44.4Z" transform="translate(-37.841 -32.92)" fill="#bec4d1"/><path d="M42.078,41.184a3.8,3.8,0,0,1,1.131.171.587.587,0,1,0,.349-1.122A4.97,4.97,0,1,0,46.725,43.2a.588.588,0,0,0-1.1.421,3.8,3.8,0,1,1-3.55-2.439Z" transform="translate(-25.316 -31.067)" fill="#bec4d1"/><path d="M36.457,31.126a8.237,8.237,0,0,0-5.534,14.337.643.643,0,0,0,.864-.952,6.928,6.928,0,1,1,1.228.892.643.643,0,0,0-.638,1.116,8.237,8.237,0,1,0,4.08-15.394Z" transform="translate(-19.695 -25.445)" fill="#bec4d1"/><path d="M32.721,19.772H30.079a1.744,1.744,0,0,1-1.39-.7L27.341,17l-.024-.034a3.216,3.216,0,0,0-2.587-1.312H18.793a3.217,3.217,0,0,0-2.587,1.312L16.183,17l-1.347,2.076a1.743,1.743,0,0,1-1.39.7H10.322A5.328,5.328,0,0,0,5,25.094V35.552a5.328,5.328,0,0,0,5.322,5.322h22.4a5.328,5.328,0,0,0,5.322-5.322V25.094A5.328,5.328,0,0,0,32.721,19.772Zm3.854,15.78a3.858,3.858,0,0,1-3.854,3.854h-22.4a3.858,3.858,0,0,1-3.854-3.854V25.094a3.858,3.858,0,0,1,3.854-3.854h3.124a3.217,3.217,0,0,0,2.586-1.312l.023-.034L17.4,17.818a1.743,1.743,0,0,1,1.39-.7h5.938a1.744,1.744,0,0,1,1.39.7l1.347,2.076.024.034a3.216,3.216,0,0,0,2.586,1.312h2.643a3.858,3.858,0,0,1,3.854,3.854Z" transform="translate(-5 -15.654)" fill="#bec4d1"/><path d="M80.5,70.088a1.885,1.885,0,0,1-1.863,1.695H77.9a.514.514,0,1,0,0,1.028h.736a2.885,2.885,0,0,0,2.886-2.627.514.514,0,1,0-1.023-.1Z" transform="translate(-50.811 -49.808)" fill="#bec4d1"/><path d="M71.289,75.507h-1.3a.514.514,0,0,0,0,1.028h1.3a.514.514,0,0,0,0-1.028Z" transform="translate(-45.803 -53.532)" fill="#bec4d1"/></g></g><ellipse cx="16" cy="16.5" rx="16" ry="16.5" transform="translate(829.275 6441.209)" fill="#5375fc"/><g transform="translate(838.286 6451.37)"><g transform="translate(0 0)"><path d="M6.348,1025.628a.365.365,0,0,0-.136.027.358.358,0,0,0-.114.076.343.343,0,0,0-.071.114.336.336,0,0,0-.027.13v2.566a.363.363,0,0,0,.027.136.318.318,0,0,0,.071.109.359.359,0,0,0,.114.076.368.368,0,0,0,.136.027H20.959a.34.34,0,0,0,.13-.027.359.359,0,0,0,.114-.076.333.333,0,0,0,.076-.109.363.363,0,0,0,.027-.136v-2.566a.336.336,0,0,0-.027-.13.348.348,0,0,0-.19-.19.338.338,0,0,0-.13-.027Zm2.24.951a.658.658,0,1,1-.658.658A.662.662,0,0,1,8.587,1026.579Z" transform="translate(-6 -1016.739)" fill="#fff" fill-rule="evenodd"/><path d="M6.348,993a.363.363,0,0,0-.136.027.293.293,0,0,0-.185.185.363.363,0,0,0-.027.136v2.56a.363.363,0,0,0,.027.136.293.293,0,0,0,.185.185.365.365,0,0,0,.136.027H20.959a.386.386,0,0,0,.245-.1.354.354,0,0,0,.076-.114.363.363,0,0,0,.027-.136v-2.56a.363.363,0,0,0-.027-.136.357.357,0,0,0-.076-.114.341.341,0,0,0-.114-.071.336.336,0,0,0-.13-.027Zm2.24.94a.663.663,0,1,1-.658.663A.666.666,0,0,1,8.587,993.943Z" transform="translate(-6 -988.556)" fill="#fff" fill-rule="evenodd"/><path d="M6.348,960.347a.363.363,0,0,0-.136.027.354.354,0,0,0-.114.076.318.318,0,0,0-.071.109.363.363,0,0,0-.027.136v2.56a.364.364,0,0,0,.027.136.321.321,0,0,0,.071.109.358.358,0,0,0,.114.076.363.363,0,0,0,.136.027H20.959a.336.336,0,0,0,.13-.027.358.358,0,0,0,.114-.076.336.336,0,0,0,.076-.109.364.364,0,0,0,.027-.136v-2.56a.363.363,0,0,0-.027-.136.333.333,0,0,0-.076-.109.354.354,0,0,0-.114-.076.336.336,0,0,0-.13-.027Zm2.24.946a.658.658,0,1,1-.658.658A.661.661,0,0,1,8.587,961.292Z" transform="translate(-6 -960.347)" fill="#fff" fill-rule="evenodd"/></g></g><g transform="translate(814.275 6508.209)" fill="#fff" stroke="#5375fc" stroke-width="2"><circle cx="2" cy="2" r="2" stroke="none"/><circle cx="2" cy="2" r="3" fill="none"/></g><g transform="translate(1018.275 6530.209)" fill="#fff" stroke="#5375fc" stroke-width="2"><circle cx="3.5" cy="3.5" r="3.5" stroke="none"/><circle cx="3.5" cy="3.5" r="2.5" fill="none"/></g><g transform="translate(821.143 6446.525)"><line y2="5.217" transform="translate(2.609 0)" fill="none" stroke="#5375fc" stroke-linecap="round" stroke-width="1"/><line y2="5.217" transform="translate(5.217 2.609) rotate(90)" fill="none" stroke="#5375fc" stroke-linecap="round" stroke-width="1"/></g><g transform="translate(1013.442 6483.792)"><line y2="5.217" transform="translate(2.609)" fill="none" stroke="#5375fc" stroke-linecap="round" stroke-width="1"/><line y2="5.217" transform="translate(5.217 2.609) rotate(90)" fill="none" stroke="#5375fc" stroke-linecap="round" stroke-width="1"/></g></g></svg>