<svg xmlns="http://www.w3.org/2000/svg" width="19" height="19" viewBox="0 0 19 19">
  <g id="share-symbol" transform="translate(0 -18.273)">
    <g id="Group_47" data-name="Group 47" transform="translate(0 18.273)">
      <path id="Path_21" data-name="Path 21" d="M90.012,23.184,85.333,18.5a.751.751,0,0,0-.549-.231.849.849,0,0,0-.3.061.729.729,0,0,0-.475.719v2.34h-1.95a19.911,19.911,0,0,0-2.394.134,12.916,12.916,0,0,0-1.944.372,7.911,7.911,0,0,0-1.517.591,6.489,6.489,0,0,0-1.152.749,4.751,4.751,0,0,0-.835.9,5.6,5.6,0,0,0-.573.993,5.739,5.739,0,0,0-.341,1.072,8.409,8.409,0,0,0-.171,1.1q-.043.512-.043,1.109A5.834,5.834,0,0,0,73.3,29.9a9.7,9.7,0,0,0,.469,1.389q.256.585.6,1.212t.481.835q.134.207.256.378a.381.381,0,0,0,.317.158.661.661,0,0,0,.146-.024.376.376,0,0,0,.244-.414q-.548-4.094.9-5.764,1.4-1.6,5.337-1.6H84v2.34a.729.729,0,0,0,.475.719.847.847,0,0,0,.3.061.725.725,0,0,0,.549-.231l4.679-4.679a.765.765,0,0,0,0-1.1Z" transform="translate(-71.243 -18.273)" fill="#5375fc"/>
      <path id="Path_22" data-name="Path 22" d="M16.9,65.124a.358.358,0,0,0-.427.1,2.567,2.567,0,0,1-.658.458.391.391,0,0,0-.219.359v2.651a1.924,1.924,0,0,1-.573,1.4,1.863,1.863,0,0,1-1.377.582H3.509a1.862,1.862,0,0,1-1.377-.582,1.924,1.924,0,0,1-.573-1.4V58.386a1.924,1.924,0,0,1,.573-1.4A1.862,1.862,0,0,1,3.509,56.4H4.874a.556.556,0,0,0,.195-.05,8.073,8.073,0,0,1,1.621-.743.36.36,0,0,0,.317-.4.384.384,0,0,0-.116-.279.372.372,0,0,0-.274-.117H3.509a3.353,3.353,0,0,0-2.48,1.047A3.465,3.465,0,0,0,0,58.386V68.692a3.465,3.465,0,0,0,1.03,2.521,3.353,3.353,0,0,0,2.48,1.047H13.648a3.353,3.353,0,0,0,2.48-1.047,3.464,3.464,0,0,0,1.03-2.521V65.484A.374.374,0,0,0,16.9,65.124Z" transform="translate(0 -53.259)" fill="#5375fc"/>
    </g>
  </g>
</svg>
